<?xml version="1.0" encoding="UTF-8"?><svg id="Lager_1" xmlns="http://www.w3.org/2000/svg" viewBox="0 0 331.12 196.71"><defs><style>.cls-1{stroke-width:9px;}.cls-1,.cls-2,.cls-3{fill:#fff;stroke:#fff;stroke-miterlimit:10;}.cls-4{letter-spacing:-.04em;}.cls-3{font-family:TimesNewRomanPSMT, 'Times New Roman';font-size:136.82px;}</style></defs><text/><text class="cls-3" transform="translate(.5 151.46)"><tspan class="cls-4" x="0" y="0">L</tspan><tspan x="78.5" y="0" xml:space="preserve">  nkr</tspan></text><polygon class="cls-2" points="115.9 101.35 103.3 86.65 115.9 71.94 128.51 86.65 115.9 101.35"/><polygon class="cls-2" points="132.06 82.51 119.45 67.81 132.06 53.1 144.66 67.81 132.06 82.51"/><polygon class="cls-2" points="99.75 82.51 87.14 67.81 99.75 53.1 112.36 67.81 99.75 82.51"/><polygon class="cls-2" points="83.08 63.51 70.47 48.81 83.08 34.1 95.69 48.81 83.08 63.51"/><polygon class="cls-2" points="148.34 63.51 135.74 48.81 148.34 34.1 160.95 48.81 148.34 63.51"/><polygon class="cls-2" points="115.9 63.67 103.3 48.97 115.9 34.26 128.51 48.97 115.9 63.67"/><polygon class="cls-2" points="116.1 128.69 103.49 143.4 116.1 158.1 128.7 143.4 116.1 128.69"/><polygon class="cls-2" points="132.25 147.53 119.64 162.24 132.25 176.94 144.86 162.24 132.25 147.53"/><polygon class="cls-2" points="99.94 147.53 87.34 162.24 99.94 176.94 112.55 162.24 99.94 147.53"/><polygon class="cls-2" points="83.27 166.53 70.66 181.24 83.27 195.94 95.88 181.24 83.27 166.53"/><polygon class="cls-2" points="148.54 166.53 135.93 181.24 148.54 195.94 161.14 181.24 148.54 166.53"/><polygon class="cls-2" points="116.1 166.37 103.49 181.08 116.1 195.78 128.7 181.08 116.1 166.37"/><line class="cls-1" x1="2.1" y1="162.24" x2="76.65" y2="162.24"/><line class="cls-1" x1="154.62" y1="162.24" x2="330.62" y2="162.24"/></svg>